<?xml version="1.0" standalone="no"?>
<!DOCTYPE svg PUBLIC "-//W3C//DTD SVG 20010904//EN"
 "http://www.w3.org/TR/2001/REC-SVG-20010904/DTD/svg10.dtd">
<svg version="1.0" xmlns="http://www.w3.org/2000/svg"
 width="512.000000pt" height="512.000000pt" viewBox="0 0 512.000000 512.000000"
 preserveAspectRatio="xMidYMid meet">
<metadata>
Created by potrace 1.11, written by Peter Selinger 2001-2013
</metadata>
<g transform="translate(0.000000,512.000000) scale(0.100000,-0.100000)"
fill="#000000" stroke="none">
<path d="M360 5030 l0 -90 90 0 90 0 0 90 0 90 -90 0 -90 0 0 -90z"/>
<path d="M4670 5030 l0 -90 90 0 90 0 0 -90 0 -90 -87 2 -88 3 -2 80 c-1 44
-2 83 -2 88 -1 4 -41 7 -91 7 l-90 0 0 -90 0 -90 90 0 90 0 0 -90 0 -90 90 0
90 0 0 90 0 90 90 0 90 0 0 90 0 90 -90 0 -90 0 0 90 0 90 -90 0 -90 0 0 -90z"/>
<path d="M2315 4924 c-319 -44 -631 -150 -895 -306 -52 -31 -117 -72 -143 -91
l-49 -35 -54 33 c-144 87 -323 67 -439 -50 -120 -120 -138 -309 -42 -454 l24
-36 -68 -104 c-375 -568 -480 -1303 -278 -1958 160 -521 489 -961 949 -1268
226 -151 550 -285 812 -337 l118 -23 11 -35 c54 -166 191 -262 363 -256 90 3
165 36 232 103 44 43 94 130 94 165 0 22 6 25 60 33 75 10 245 53 341 85 342
116 641 299 893 548 537 530 780 1261 671 2022 -47 329 -201 710 -398 986 -35
49 -67 94 -71 101 -4 7 3 31 15 54 73 144 -5 330 -156 375 -72 20 -151 14
-202 -16 -20 -11 -41 -19 -47 -17 -7 3 -54 35 -106 72 -284 200 -604 332 -966
396 -153 27 -516 34 -669 13z m610 -189 c345 -52 678 -191 954 -395 l78 -58
-3 -43 c-2 -24 3 -68 12 -98 32 -111 168 -204 275 -187 l39 6 59 -80 c224
-302 374 -691 409 -1060 12 -133 6 -398 -12 -520 -92 -614 -432 -1148 -946
-1484 -147 -97 -225 -138 -375 -199 -129 -52 -188 -70 -350 -107 l-120 -27
-23 43 c-99 192 -355 249 -531 120 -49 -36 -111 -116 -111 -143 0 -19 -71 -10
-200 23 -670 175 -1209 646 -1463 1279 -108 269 -154 508 -155 805 -1 171 14
314 48 465 59 258 156 487 299 708 l63 97 37 -7 c223 -48 432 114 434 337 1
36 -2 80 -7 97 -8 33 -7 33 101 103 272 177 589 292 923 334 137 17 423 13
565 -9z"/>
<path d="M2588 4405 c-2 -1 -50 -5 -108 -9 -58 -3 -118 -8 -135 -11 -410 -71
-733 -234 -1005 -505 -107 -107 -152 -161 -231 -280 -128 -192 -222 -419 -269
-650 -28 -133 -38 -415 -21 -557 32 -263 136 -550 271 -754 l41 -61 -27 -66
c-62 -155 5 -331 154 -403 71 -34 178 -35 259 -3 l61 25 74 -48 c399 -258 918
-339 1398 -218 495 125 926 471 1156 928 66 131 102 228 138 371 l33 129 41
16 c175 69 257 278 172 441 -35 66 -107 129 -174 152 l-38 13 -33 130 c-58
228 -138 405 -268 590 -262 372 -675 645 -1103 729 -130 26 -135 26 -244 32
-58 3 -113 7 -122 8 -9 2 -18 3 -20 1z m197 -196 c106 -13 132 -18 217 -39
427 -109 788 -386 1010 -775 69 -121 152 -343 173 -466 6 -33 4 -37 -23 -48
-38 -16 -105 -85 -131 -137 -44 -85 -43 -192 3 -283 25 -49 89 -114 132 -133
30 -14 30 -14 -1 -131 -28 -110 -68 -214 -126 -329 -228 -453 -688 -783 -1204
-863 -72 -11 -349 -14 -415 -5 -257 37 -469 112 -673 238 l-58 36 8 40 c14 76
7 150 -20 207 -66 143 -209 210 -372 174 -28 -6 -32 -2 -67 52 -322 506 -329
1173 -16 1691 258 429 699 711 1205 772 88 10 268 10 358 -1z"/>
<path d="M2491 4015 c-54 -25 -124 -99 -137 -146 -8 -28 -15 -33 -74 -48 -439
-115 -779 -462 -899 -916 -9 -34 -17 -43 -48 -54 -91 -32 -163 -141 -163 -246
0 -67 31 -146 71 -185 33 -31 96 -70 113 -70 9 0 20 -21 31 -57 116 -422 420
-747 825 -883 236 -80 541 -81 778 -4 522 171 874 652 873 1194 -1 69 -3 136
-5 150 -3 14 -7 43 -11 65 -67 459 -453 886 -905 1003 -69 18 -76 22 -84 52
-14 48 -88 124 -146 149 -66 28 -152 27 -219 -4z m-106 -392 c100 -158 337
-154 447 6 l17 24 63 -18 c321 -90 598 -357 711 -685 44 -128 52 -185 51 -355
-1 -140 -4 -172 -28 -260 -64 -240 -210 -453 -406 -596 -123 -90 -225 -137
-385 -180 -105 -28 -327 -35 -435 -13 -401 78 -714 351 -839 733 -12 35 -21
69 -21 75 0 6 21 26 45 44 144 109 127 345 -31 438 -18 10 -18 13 0 75 89 322
358 601 688 714 93 31 102 31 123 -2z"/>
<path d="M2521 3318 c-224 -26 -432 -165 -542 -362 -153 -275 -111 -618 103
-837 79 -82 120 -114 185 -148 66 -33 140 -58 228 -77 34 -7 168 -7 215 0 346
55 608 352 611 691 2 170 -36 294 -131 435 -104 154 -310 278 -493 296 -104
10 -110 10 -176 2z"/>
<path d="M90 4760 l0 -90 90 0 90 0 0 90 0 90 -90 0 -90 0 0 -90z"/>
<path d="M358 730 c-2 -44 -1 -85 0 -90 2 -6 44 -10 93 -10 l89 0 0 90 0 90
-89 0 -89 0 -4 -80z"/>
<path d="M4670 720 c0 -73 3 -90 15 -91 8 0 44 0 80 0 36 0 70 0 75 0 6 1 10
38 10 91 l0 90 -90 0 -90 0 0 -90z"/>
<path d="M4490 540 l0 -90 90 0 90 0 0 -90 0 -90 90 0 90 0 0 91 0 91 28 -2
c15 -1 55 -2 90 -1 l62 1 0 90 0 90 -90 0 -90 0 0 -90 0 -90 -90 0 -90 0 2 88
3 87 -93 3 -92 3 0 -91z"/>
<path d="M90 451 l0 -89 53 -4 c28 -1 69 -2 90 0 l37 3 0 90 0 89 -90 0 -90 0
0 -89z"/>
<path d="M628 503 c-2 -21 -1 -62 0 -90 l4 -53 89 0 89 0 0 90 0 90 -89 0 -90
0 -3 -37z"/>
<path d="M360 180 l0 -90 90 0 90 0 0 90 0 90 -90 0 -90 0 0 -90z"/>
</g>
</svg>
